<?xml version="1.0" standalone="no"?>
<!DOCTYPE svg PUBLIC "-//W3C//DTD SVG 20010904//EN"
 "http://www.w3.org/TR/2001/REC-SVG-20010904/DTD/svg10.dtd">
<svg version="1.0" xmlns="http://www.w3.org/2000/svg"
 width="145.000000pt" height="204.000000pt" viewBox="0 0 145.000000 204.000000"
 preserveAspectRatio="xMidYMid meet">
<metadata>
Converted by JS
</metadata>
<g transform="translate(0.000000,204.000000) scale(0.100000,-0.100000)"
fill="#000000" stroke="none">
<path d="M285 1908 c-33 -39 -28 -81 14 -118 28 -25 28 -25 9 -45 -47 -47
-108 -123 -108 -134 0 -6 7 -11 15 -11 12 0 10 -8 -8 -42 -22 -43 -22 -47 -25
-553 -2 -498 -2 -511 18 -543 38 -61 44 -62 515 -62 471 0 478 1 515 62 19 32
20 49 20 539 l0 506 -23 46 c-23 45 -23 46 -4 51 18 4 14 12 -34 68 -88 102
-84 92 -49 126 16 17 30 40 30 52 0 29 -26 76 -45 84 -9 3 -196 6 -415 6
l-398 0 -27 -32z m844 -14 c26 -33 26 -45 0 -78 l-20 -26 -388 0 c-334 0 -390
2 -409 16 -27 18 -30 69 -5 96 15 17 41 18 409 18 l393 0 20 -26z m-189 -128
c0 -2 -7 -20 -16 -41 -15 -37 -13 -71 5 -61 4 3 11 24 15 46 3 22 8 40 10 40
2 0 20 -16 39 -35 33 -33 87 -49 87 -25 0 6 -9 10 -19 10 -21 0 -81 46 -81 61
0 5 22 9 49 9 42 0 53 -4 71 -27 12 -16 39 -47 61 -70 21 -23 39 -44 39 -47 0
-2 -14 -1 -30 4 -21 6 -47 4 -83 -7 -48 -14 -58 -14 -123 1 -66 16 -76 16
-126 1 -48 -13 -59 -14 -88 -1 -29 12 -38 12 -67 -1 -30 -12 -41 -12 -90 2
-51 15 -61 15 -127 -1 -65 -15 -75 -15 -124 -1 -38 12 -60 13 -79 6 -14 -5
-27 -8 -29 -6 -2 1 25 35 59 75 l62 72 292 0 c161 0 293 -2 293 -4z m-338
-167 c35 -8 55 -8 82 1 28 9 43 9 70 -1 28 -10 44 -10 89 3 50 14 61 14 120 0
56 -13 74 -14 119 -3 30 7 63 12 73 10 28 -6 75 -102 75 -154 0 -54 -14 -60
-120 -55 -153 8 -235 3 -317 -19 -109 -28 -167 -27 -330 10 -96 21 -156 30
-201 27 l-64 -3 4 47 c6 58 47 142 73 147 10 2 43 -3 72 -10 45 -10 63 -10
116 3 34 9 69 14 77 12 8 -2 36 -8 62 -15z m-342 -234 c0 -26 8 -43 35 -69 49
-49 97 -60 230 -52 61 4 207 10 325 14 175 6 221 11 247 25 42 22 73 56 73 79
0 10 6 18 14 18 8 0 21 3 30 6 14 6 16 -37 16 -435 0 -491 0 -489 -65 -517
-50 -21 -850 -21 -900 0 -65 28 -65 26 -65 515 0 460 -1 448 43 450 13 1 17
-7 17 -34z m190 5 c141 -34 243 -38 330 -15 123 33 170 37 272 24 54 -7 98
-15 98 -19 0 -10 -41 -45 -70 -61 -17 -9 -95 -15 -250 -21 -124 -4 -265 -10
-315 -14 -59 -4 -105 -2 -134 6 -55 15 -101 61 -101 101 0 37 9 37 170 -1z"/>
<path d="M320 1880 c0 -6 43 -10 110 -10 67 0 110 4 110 10 0 6 -43 10 -110
10 -67 0 -110 -4 -110 -10z"/>
<path d="M938 1198 c-24 -20 -28 -44 -12 -67 17 -23 53 -28 72 -9 17 17 15 54
-4 72 -19 19 -35 20 -56 4z m50 -40 c-2 -15 -10 -23 -23 -23 -13 0 -21 8 -23
23 -3 18 1 22 23 22 22 0 26 -4 23 -22z"/>
<path d="M526 1034 c-36 -36 -6 -104 46 -104 25 0 58 36 58 63 0 49 -70 76
-104 41z m74 -19 c14 -17 5 -51 -16 -59 -22 -8 -54 11 -54 32 0 38 46 56 70
27z"/>
<path d="M830 740 c-29 -29 -26 -74 6 -99 15 -12 34 -21 44 -21 30 0 70 39 70
69 0 65 -74 97 -120 51z m90 -19 c16 -31 12 -49 -15 -67 -23 -15 -27 -15 -50
0 -14 9 -25 25 -25 36 0 45 69 69 90 31z"/>
<path d="M380 721 c-16 -31 -12 -49 15 -67 23 -15 27 -15 50 0 14 9 25 25 25
36 0 45 -69 69 -90 31z m64 -17 c8 -21 -1 -34 -24 -34 -10 0 -21 4 -24 9 -10
16 5 41 24 41 10 0 21 -7 24 -16z"/>
<path d="M1170 591 c0 -59 -4 -84 -16 -95 -13 -14 -49 -16 -240 -16 -148 0
-223 -3 -219 -10 4 -6 92 -10 231 -10 274 0 264 -5 264 125 0 50 -4 85 -10 85
-6 0 -10 -33 -10 -79z"/>
<path d="M310 1360 c0 -15 38 -50 66 -60 33 -13 84 -13 84 0 0 6 -12 10 -27
10 -32 0 -84 25 -96 46 -9 16 -27 19 -27 4z"/>
<path d="M873 1350 c-13 -5 -23 -14 -23 -20 0 -7 8 -9 23 -3 12 4 42 6 67 5
31 -2 41 1 34 8 -15 15 -75 21 -101 10z"/>
<path d="M110 160 c0 -61 3 -81 13 -77 6 2 11 15 9 29 -2 13 3 30 11 36 12 10
19 4 41 -28 14 -22 31 -40 36 -40 16 0 12 14 -20 57 l-30 41 25 20 c14 11 25
25 25 31 0 21 -18 11 -44 -24 -33 -43 -48 -45 -44 -3 2 19 -2 33 -9 35 -10 4
-13 -16 -13 -77z"/>
<path d="M270 220 c-29 -29 -27 -90 3 -118 50 -47 117 -14 117 58 0 49 -27 80
-70 80 -17 0 -39 -9 -50 -20z m84 -16 c33 -32 11 -104 -31 -104 -25 0 -53 31
-53 58 0 51 51 79 84 46z"/>
<path d="M420 161 c0 -47 4 -81 10 -81 6 0 10 28 11 63 l1 62 19 -63 c11 -35
25 -62 31 -60 6 2 18 26 25 54 21 71 30 73 25 4 -3 -40 -1 -60 7 -60 7 0 11
28 11 80 0 64 -3 80 -15 80 -10 0 -21 -21 -32 -60 -9 -33 -20 -57 -24 -53 -4
4 -14 31 -22 58 -8 31 -20 51 -31 53 -14 3 -16 -8 -16 -77z"/>
<path d="M600 160 l0 -80 29 0 c50 0 81 17 81 44 0 14 -4 28 -10 31 -5 3 -7
19 -4 34 7 34 -15 51 -65 51 l-31 0 0 -80z m75 35 c0 -14 -8 -21 -27 -23 -24
-3 -28 0 -28 23 0 23 4 26 28 23 19 -2 27 -9 27 -23z m12 -61 c7 -19 -13 -34
-44 -34 -18 0 -23 6 -23 25 0 21 5 25 30 25 19 0 33 -6 37 -16z"/>
<path d="M740 170 c0 -58 3 -71 19 -80 32 -17 69 -12 85 12 20 28 23 142 4
136 -8 -3 -11 -21 -9 -51 3 -52 -12 -87 -37 -87 -31 0 -42 22 -42 82 0 32 -4
58 -10 58 -6 0 -10 -30 -10 -70z"/>
<path d="M909 221 c-33 -27 -33 -95 0 -122 13 -10 34 -19 47 -19 29 0 75 41
54 48 -7 3 -17 -3 -22 -12 -11 -19 -49 -21 -66 -4 -16 16 -16 80 0 96 17 17
48 15 70 -5 10 -9 21 -13 26 -9 11 11 -37 46 -63 46 -13 0 -33 -9 -46 -19z"/>
<path d="M1044 227 c-9 -24 0 -142 11 -139 6 1 10 16 11 34 0 29 3 31 37 32
34 1 36 -1 39 -34 5 -62 21 -32 22 42 1 49 -3 73 -11 75 -9 3 -13 -7 -13 -30
0 -33 -1 -34 -37 -32 -35 1 -38 3 -35 27 3 29 -15 48 -24 25z"/>
<path d="M1229 213 c-6 -15 -19 -49 -29 -76 -10 -26 -14 -50 -9 -53 5 -3 13 6
19 20 14 37 66 37 80 1 9 -23 30 -35 30 -17 0 18 -59 147 -69 150 -6 2 -16 -9
-22 -25z m35 -25 c9 -35 8 -38 -15 -38 -15 0 -19 4 -15 16 3 9 6 22 6 30 0 22
17 16 24 -8z"/>
</g>
</svg>
